<svg width="338" height="86" viewBox="0 0 338 86" fill="none" xmlns="http://www.w3.org/2000/svg">
<path d="M184.241 18.2847C204.436 18.2847 214.646 29.1674 214.646 50.933C214.646 61.2548 211.504 71.1278 206.456 76.8497C201.407 82.5715 193.217 85.6007 183.007 85.6007C173.134 85.6007 165.841 82.9081 161.129 77.635C155.856 71.8009 152.715 61.9279 152.715 50.8208C152.715 29.2796 163.373 18.2847 184.241 18.2847ZM184.017 38.1429C176.051 38.1429 171.9 43.3038 171.9 53.0646C171.9 63.6108 176.163 69.5571 183.68 69.5571C191.197 69.5571 195.573 63.2742 195.573 52.5037C195.573 42.9672 191.758 38.1429 184.017 38.1429Z" fill="#071003"/>
<path d="M281.682 20.5317V83.3601H261.488V76.7406C261.488 74.609 261.6 74.048 262.161 70.009H261.488C259.58 75.5065 258.234 77.8626 255.654 80.3308C252.176 83.8088 247.351 85.6039 241.966 85.6039C235.346 85.6039 229.512 82.9113 226.259 78.3114C224.464 75.7309 223.005 71.3554 222.556 66.531C222.444 64.6237 222.332 60.8092 222.332 51.1605V20.5317L243.424 20.5317V50.5996C243.424 60.697 243.537 61.5945 244.771 63.7262C246.117 65.8579 248.473 67.092 251.39 67.092C255.317 67.092 258.458 64.8481 259.692 61.258C260.478 58.7897 260.59 57.6678 260.59 50.5996V20.5317L281.682 20.5317Z" fill="#071003"/>
<path d="M123.752 83.4928L123.752 0L144.625 0V83.4928H123.752Z" fill="#071003"/>
<path d="M91.957 83.4928L91.957 0L113.327 0L113.327 83.4928H91.957Z" fill="#071003"/>
<path d="M0 8.94434L50.6921 8.94434V27.6723L19.8068 27.6723V40.0056L50.6921 40.0056V57.3878L19.8068 57.3878L19.8068 83.4915H0L0 8.94434Z" fill="#071003"/>
<path d="M60.4121 83.3609L60.4121 21.2109C64.2268 22.6695 66.6951 23.1183 70.622 23.1183C74.4367 23.1183 77.466 22.5573 81.5051 21.2109L81.5052 83.3609H60.4121Z" fill="#071003"/>
<path d="M70.7354 17.5513C62.6275 17.5513 58.5286 14.7138 58.5286 9.03901C58.5286 6.34785 59.7898 3.77369 61.8167 2.28186C63.8437 0.790018 67.1319 0.000221738 71.2308 0.000222097C75.1947 0.000222443 78.1225 0.702264 80.0143 2.0771C82.1314 3.59819 83.3926 6.17234 83.3926 9.06826C83.3926 14.6846 79.1134 17.5513 70.7354 17.5513Z" fill="#071003"/>
<path fill-rule="evenodd" clip-rule="evenodd" d="M337.01 20.4766H317.488V8.7749L303.792 8.7749C303.792 24.7068 298.19 27.5806 287.756 27.5806V39.9372H298.19C297.741 46.5568 297.629 50.5958 297.629 56.991C297.629 68.3229 298.639 74.0449 301.332 78.3083C304.361 83.0206 310.307 85.6011 318.161 85.6011C326.239 85.6011 331.512 83.4694 337.01 77.9717V63.3862C333.644 67.6497 330.054 69.557 325.678 69.557C322.986 69.557 320.629 68.4351 319.507 66.6399C318.273 64.7326 317.824 61.8155 317.824 56.6544C317.824 49.4739 317.488 39.9372 317.488 39.9372L337.01 39.9372V20.4766Z" fill="#071003"/>
</svg>
